<svg xmlns="http://www.w3.org/2000/svg" version="1.1" xmlns:xlink="http://www.w3.org/1999/xlink" xmlns:svgjs="http://svgjs.dev/svgjs" width="100%" height="100%" viewBox="0 0 1000 600"><rect width="1000" height="600" x="0" y="0" fill="#eb2188"/><g><rect width="333.3333333333333" height="333.3333333333333" rx="13.333333333333334" ry="13.333333333333334" y="177.27767013616455" fill="#080a52" transform="matrix(0.8061633216922534,0,0,0.8061633216922534,0,22.724699217056752)" x="155.0554656982422"/><path d="M400.5878040513712 268.94434660419165L421.6624309170429 268.94434660419165L378.22959509614736 418.73539138031106L356.3191473349533 418.73539138031106L321.4833264394309 298.16822720120655L285.39377420062493 418.73539138031106L263.6922816633115 418.94434660419165L221.78183390211746 268.94434660419165L242.61765479763986 268.94434660419165L275.27437121555033 395.95927197732595L311.39377420062493 268.94434660419165L333.30422196181894 268.94434660419165L367.6922816633115 395.5115107832961L400.5878040513712 268.94434660419165Z " fill="#eb2188" transform="matrix(0.8061633216922534,0,0,0.8061633216922534,0,22.724699217056752)"/><path d="M738.326991114073 277.56663421518914L757.9635569217385 277.56663421518914L717.4944305050909 417.1364461455929L697.0790773849402 417.1364461455929L664.6203347538558 304.79637631958633L630.9934111540435 417.1364461455929L610.7727548620142 417.33114297371424L571.7221339073934 277.56663421518914L591.1361890543487 277.56663421518914L621.5645219064535 395.9144918803681L655.2192593388545 277.56663421518914L675.6346124590053 277.56663421518914L707.6761476012582 395.49728439153665L738.326991114073 277.56663421518914ZM825.8293084383158 418.9443452638624Q810.4204451841421 418.9443452638624 797.9042205191995 411.9352594514945Q785.387995854257 404.9261736391267 778.2676547115342 391.9927414853527Q771.1751274014 379.08712316416756 771.1751274014 362.0650576198457L771.1751274014 362.0650576198457Q771.1751274014 345.23768890364516 778.4901653722443 332.33207058245995Q785.7773895104997 319.398638428686 798.4048695057973 312.5008079466732Q811.0323495010948 305.60297746466046 826.6359095833899 305.60297746466046L826.6359095833899 305.60297746466046Q842.2672834982736 305.60297746466046 854.8669496609825 312.5008079466732Q867.4944296562801 319.398638428686 874.8094676271243 332.2208152521049Q882.1245055979684 345.04299207552384 882.1245055979684 362.0650576198457L882.1245055979684 362.0650576198457Q882.1245055979684 379.08712316416756 874.614770799003 391.9927414853527Q867.1050360000374 404.9261736391267 854.2828591766186 411.9352594514945Q841.4606823531997 418.9443452638624 825.8293084383158 418.9443452638624L825.8293084383158 418.9443452638624ZM825.8293084383158 402.9235776927359Q835.6475913421484 402.9235776927359 844.2698794446645 398.30648148300156Q852.8643537145917 393.7171991058559 858.176795739045 384.4830066863872Q863.4892377634985 375.27662809950726 863.4892377634985 362.0650576198457L863.4892377634985 362.0650576198457Q863.4892377634985 348.85348714018414 858.2880510694001 339.6471085533042Q853.0868643753017 330.41291613383544 844.6592731009071 325.9070752544561Q836.2594956591013 321.4012343750768 826.4412127552685 321.4012343750768L826.4412127552685 321.4012343750768Q816.4282330233145 321.4012343750768 808.111897079275 325.9070752544561Q799.7955611352353 330.41291613383544 794.7890712692583 339.6471085533042Q789.7825814032813 348.85348714018414 789.7825814032813 362.0650576198457L789.7825814032813 362.0650576198457Q789.7825814032813 375.4713249276286 794.705629771492 384.7055173470973Q799.600864307114 393.91189593397723 807.8059449207985 398.41773681335656Q816.0388393670719 402.9235776927359 825.8293084383158 402.9235776927359L825.8293084383158 402.9235776927359ZM924.3737173002967 325.2117294397371Q929.1855103381524 315.8106540247358 938.0859367665561 310.6094673306375Q946.9863631949597 305.38046680395036 959.8085400183786 305.38046680395036L959.8085400183786 305.38046680395036L959.8085400183786 324.2104314665417L954.9967469805229 324.2104314665417Q924.3737173002967 324.2104314665417 924.3737173002967 357.4479614101113L924.3737173002967 357.4479614101113L924.3737173002967 417.1364461455929L906.1556569546582 417.1364461455929L906.1556569546582 307.38306275034114L924.3737173002967 307.38306275034114L924.3737173002967 325.2117294397371ZM974.0214084712356 361.87036079172435Q974.0214084712356 345.04299207552384 980.835797455482 332.33207058245995Q987.6501864397285 319.62114908939606 999.5545067877183 312.61206327702826Q1011.4866409682969 305.60297746466046 1026.3114137381067 305.60297746466046L1026.3114137381067 305.60297746466046Q1039.1057767289367 305.60297746466046 1050.1200544340861 311.4995099734778Q1061.1343321392355 317.3960424822952 1066.9474231502868 327.01962855800656L1066.9474231502868 327.01962855800656L1066.9474231502868 268.94434611267314L1085.3879941566354 268.94434611267314L1085.3879941566354 417.1364461455929L1066.9474231502868 417.1364461455929L1066.9474231502868 396.49858236473204Q1061.551539628067 406.31686526856475 1050.92665557916 412.6306052662136Q1040.3295853628422 418.9443452638624 1026.0889030773965 418.9443452638624L1026.0889030773965 418.9443452638624Q1011.4866409682969 418.9443452638624 999.5545067877183 411.7405626233732Q987.6501864397285 404.5089661502953 980.835797455482 391.492092498755Q974.0214084712356 378.4752188472148 974.0214084712356 361.87036079172435L974.0214084712356 361.87036079172435ZM1066.9474231502868 362.0650576198457Q1066.9474231502868 349.6600882852582 1061.9409332843097 340.42589586578947Q1056.9344434183326 331.2195172789095 1048.4234106461718 326.32428274328754Q1039.9123778740109 321.4012343750768 1029.7047013139354 321.4012343750768L1029.7047013139354 321.4012343750768Q1019.4970247538602 321.4012343750768 1011.0694334794655 326.2130274129325Q1002.6696560376595 331.0248204507882 997.6631661716826 340.23119903766815Q992.6566763057056 349.4375776245481 992.6566763057056 361.87036079172435L992.6566763057056 361.87036079172435Q992.6566763057056 374.47002695443314 997.6631661716826 383.7876608716682Q1002.6696560376595 393.10529478890317 1011.0694334794655 398.00052932452513Q1019.4970247538602 402.9235776927359 1029.7047013139354 402.9235776927359L1029.7047013139354 402.9235776927359Q1039.9123778740109 402.9235776927359 1048.4234106461718 398.00052932452513Q1056.9344434183326 393.10529478890317 1061.9409332843097 383.7876608716682Q1066.9474231502868 374.47002695443314 1066.9474231502868 362.0650576198457L1066.9474231502868 362.0650576198457Z " fill="#080a52" transform="matrix(0.8061633216922534,0,0,0.8061633216922534,0,22.724699217056752)"/></g></svg>